<svg xmlns="http://www.w3.org/2000/svg" viewBox="0 0 64 64">
  <rect width="64" height="64" rx="16" fill="#377c36"/>
  <path
    fill="#ffffff"
    d="M16 10.667C12.318 10.667 9.333 13.651 9.333 17.333v29.334c0 3.682 2.985 6.666 6.667 6.666h13.333v-11.11c0-3.682 2.985-6.666 6.667-6.666s6.667 2.984 6.667 6.666v11.11H48c3.682 0 6.667-2.984 6.667-6.666V17.333c0-3.682-2.985-6.666-6.667-6.666H16Zm2.222 31.111c0-1.222 1-2.223 2.222-2.223h4.445c1.222 0 2.222 1.001 2.222 2.223v4.444c0 1.223-1 2.222-2.222 2.222h-4.445c-1.222 0-2.222-.999-2.222-2.222v-4.444Zm15.556-2.223h4.444c1.223 0 2.223 1.001 2.223 2.223v4.444c0 1.223-1 2.222-2.223 2.222h-4.444c-1.223 0-2.223-.999-2.223-2.222v-4.444c0-1.222 1-2.223 2.223-2.223Zm13.333 2.223c0-1.222 1-2.223 2.222-2.223h4.445c1.222 0 2.222 1.001 2.222 2.223v4.444c0 1.223-1 2.222-2.222 2.222h-4.445c-1.222 0-2.222-.999-2.222-2.222v-4.444ZM20.444 23.999h4.445c1.222 0 2.222 1 2.222 2.223v4.444c0 1.222-1 2.222-2.222 2.222h-4.445c-1.222 0-2.222-1-2.222-2.222v-4.444c0-1.223 1-2.223 2.222-2.223Zm13.334 2.223c0-1.223 1-2.223 2.222-2.223h4.444c1.223 0 2.223 1 2.223 2.223v4.444c0 1.222-1 2.222-2.223 2.222H36c-1.222 0-2.222-1-2.222-2.222v-4.444Zm13.333-2.223h4.445c1.222 0 2.222 1 2.222 2.223v4.444c0 1.222-1 2.222-2.222 2.222h-4.445c-1.222 0-2.222-1-2.222-2.222v-4.444c0-1.223 1-2.223 2.222-2.223Z"
  />
</svg>
